<svg width="234" height="59" viewBox="0 0 234 59" fill="none" xmlns="http://www.w3.org/2000/svg">
<rect width="234" height="59" fill="#FBB040"/>
<path d="M38.36 36.7C40.66 36.7 42.62 35.88 43.92 34.36L42.24 32.76C41.22 33.88 39.96 34.42 38.5 34.42C35.6 34.42 33.5 32.38 33.5 29.5C33.5 26.62 35.6 24.58 38.5 24.58C39.96 24.58 41.22 25.12 42.24 26.22L43.92 24.64C42.62 23.12 40.66 22.3 38.38 22.3C34.08 22.3 30.88 25.32 30.88 29.5C30.88 33.68 34.08 36.7 38.36 36.7ZM50.9806 36.64C54.3006 36.64 56.6806 34.36 56.6806 31.16C56.6806 27.96 54.3006 25.7 50.9806 25.7C47.7006 25.7 45.3006 27.96 45.3006 31.16C45.3006 34.36 47.7006 36.64 50.9806 36.64ZM50.9806 34.5C49.1806 34.5 47.8206 33.2 47.8206 31.16C47.8206 29.12 49.1806 27.82 50.9806 27.82C52.8006 27.82 54.1606 29.12 54.1606 31.16C54.1606 33.2 52.8006 34.5 50.9806 34.5ZM65.5312 25.7C63.9712 25.7 62.6712 26.22 61.8512 27.2V25.82H59.4712V36.5H61.9712V31.1C61.9712 28.96 63.1712 27.88 64.9512 27.88C66.5512 27.88 67.4912 28.8 67.4912 30.7V36.5H69.9913V30.38C69.9913 27.16 68.0912 25.7 65.5312 25.7ZM79.2827 34.14C78.9027 34.44 78.4027 34.58 77.8827 34.58C76.9227 34.58 76.4027 34.02 76.4027 32.98V27.9H79.2627V25.9H76.4027V23.46H73.9027V25.9H72.1427V27.9H73.9027V33.04C73.9027 35.4 75.2427 36.64 77.5827 36.64C78.4827 36.64 79.3827 36.4 79.9827 35.92L79.2827 34.14ZM86.5192 25.7C84.7992 25.7 83.1392 26.14 81.9992 27.02L82.9792 28.84C83.7792 28.18 85.0192 27.78 86.2192 27.78C87.9992 27.78 88.8792 28.64 88.8792 30.1V30.26H86.1192C82.8792 30.26 81.6792 31.66 81.6792 33.44C81.6792 35.3 83.2192 36.64 85.6592 36.64C87.2592 36.64 88.4192 36.12 89.0192 35.2V36.5H91.3792V30.24C91.3792 27.16 89.5992 25.7 86.5192 25.7ZM86.1792 34.82C84.8992 34.82 84.1392 34.24 84.1392 33.34C84.1392 32.56 84.5992 31.92 86.2992 31.92H88.8792V33.16C88.4592 34.26 87.3992 34.82 86.1792 34.82ZM99.9853 36.64C102.065 36.64 103.725 35.74 104.545 34.14L102.625 33.02C101.985 34.04 101.025 34.5 99.9653 34.5C98.1253 34.5 96.7253 33.24 96.7253 31.16C96.7253 29.1 98.1253 27.82 99.9653 27.82C101.025 27.82 101.985 28.28 102.625 29.3L104.545 28.18C103.725 26.56 102.065 25.7 99.9853 25.7C96.6053 25.7 94.2053 27.96 94.2053 31.16C94.2053 34.36 96.6053 36.64 99.9853 36.64ZM112.963 34.14C112.583 34.44 112.083 34.58 111.563 34.58C110.603 34.58 110.083 34.02 110.083 32.98V27.9H112.943V25.9H110.083V23.46H107.583V25.9H105.823V27.9H107.583V33.04C107.583 35.4 108.923 36.64 111.263 36.64C112.163 36.64 113.063 36.4 113.663 35.92L112.963 34.14ZM128.307 36.7C132.127 36.7 134.427 34.48 134.427 30.4V22.5H131.867V30.3C131.867 33.18 130.587 34.42 128.327 34.42C126.067 34.42 124.767 33.18 124.767 30.3V22.5H122.167V30.4C122.167 34.48 124.467 36.7 128.307 36.7ZM141.528 36.64C144.528 36.64 146.368 35.34 146.368 33.34C146.368 29.16 139.768 31.08 139.768 28.92C139.768 28.22 140.488 27.72 142.008 27.72C143.028 27.72 144.048 27.92 145.068 28.52L146.028 26.62C145.068 26.04 143.448 25.7 142.028 25.7C139.148 25.7 137.328 27.02 137.328 29.04C137.328 33.3 143.928 31.38 143.928 33.42C143.928 34.16 143.268 34.6 141.688 34.6C140.348 34.6 138.908 34.16 137.968 33.54L137.008 35.44C137.968 36.12 139.748 36.64 141.528 36.64Z" fill="#3A3D3B"/>
<path d="M204 29.5L194 23.7265V35.2735L204 29.5ZM167 30.5H195V28.5H167V30.5Z" fill="#3A3D3B"/>
</svg>
