<svg width="245" height="70" viewBox="0 0 245 70" fill="none" xmlns="http://www.w3.org/2000/svg">
<rect width="245" height="70" fill="#E5E5E5"/>
<g clip-path="url(#clip0_131_1849)">
<rect width="1440" height="10275" transform="translate(-60 -10067)" fill="#231F20"/>
<g filter="url(#filter0_d_131_1849)">
<rect width="1440" height="326" transform="translate(-60 -118)" fill="black"/>
<path d="M245 0H0V70H245V0Z" fill="#F9F6F2"/>
<path d="M42.978 3.40723H4.0979V65.9377H42.978V3.40723Z" fill="#3A3D3B"/>
<path d="M240.891 34.8467H47.0759V65.9372H240.891V34.8467Z" fill="#3A3D3B"/>
<path d="M36.5826 33.5911H24.2447L27.0834 10.2979L10.5042 39.2042H20.92L17.8604 59.7019L36.5826 33.5911Z" fill="#FBB040"/>
<path d="M198.885 9.77344H204.562V26.4052H198.885V9.77344Z" fill="#3A3D3B"/>
<path d="M67.5541 22.1908V26.417H55.625V9.78516H67.5541V14.0223H60.485V15.9661H67.5541V20.0067H60.485V22.1908H67.5541Z" fill="#3A3D3B"/>
<path d="M137.66 22.1908V26.417H125.698V9.78516H137.66V14.0223H130.591V15.9661H137.66V20.0067H130.591V22.1908H137.66Z" fill="#3A3D3B"/>
<path d="M102.314 9.78516H107.992V22.0706H114.244V26.4388H102.314V9.78516Z" fill="#3A3D3B"/>
<path d="M175.888 14.1309H171.735V9.7627H184.99V14.1309H181.069V26.4054H175.888V14.1309Z" fill="#3A3D3B"/>
<path d="M88.7726 20.1378C88.3385 20.7138 87.7319 21.1399 87.0389 21.3558C86.3459 21.5716 85.6018 21.5661 84.9121 21.34C84.2225 21.114 83.6224 20.6788 83.1971 20.0964C82.7718 19.514 82.5429 18.814 82.5429 18.0956C82.5429 17.3773 82.7718 16.6773 83.1971 16.0948C83.6224 15.5124 84.2225 15.0773 84.9121 14.8512C85.6018 14.6252 86.3459 14.6196 87.0389 14.8354C87.7319 15.0513 88.3385 15.4775 88.7726 16.0535L92.2851 12.5808C91.1534 11.3196 89.6605 10.4284 88.0046 10.0257C86.3487 9.62299 84.608 9.7278 83.0137 10.3262C81.4195 10.9245 80.047 11.9882 79.0785 13.3759C78.11 14.7636 77.5913 16.4097 77.5913 18.0956C77.5913 19.7816 78.11 21.4277 79.0785 22.8154C80.047 24.2031 81.4195 25.2668 83.0137 25.8651C84.608 26.4635 86.3487 26.5682 88.0046 26.1655C89.6605 25.7628 91.1534 24.8717 92.2851 23.6104L88.7726 20.1378Z" fill="#3A3D3B"/>
<path d="M158.834 20.1378C158.4 20.7138 157.793 21.1399 157.1 21.3558C156.407 21.5716 155.663 21.5661 154.974 21.34C154.284 21.114 153.684 20.6788 153.259 20.0964C152.833 19.514 152.605 18.814 152.605 18.0956C152.605 17.3773 152.833 16.6773 153.259 16.0948C153.684 15.5124 154.284 15.0773 154.974 14.8512C155.663 14.6252 156.407 14.6196 157.1 14.8354C157.793 15.0513 158.4 15.4775 158.834 16.0535L162.347 12.5808C161.215 11.3196 159.722 10.4284 158.066 10.0257C156.41 9.62299 154.67 9.7278 153.075 10.3262C151.481 10.9245 150.108 11.9882 149.14 13.3759C148.172 14.7636 147.653 16.4097 147.653 18.0956C147.653 19.7816 148.172 21.4277 149.14 22.8154C150.108 24.2031 151.481 25.2668 153.075 25.8651C154.67 26.4635 156.41 26.5682 158.066 26.1655C159.722 25.7628 161.215 24.8717 162.347 23.6104L158.834 20.1378Z" fill="#3A3D3B"/>
<path d="M228.907 20.1156C228.473 20.6917 227.866 21.1179 227.173 21.3337C226.48 21.5496 225.736 21.544 225.046 21.3179C224.357 21.0919 223.757 20.6567 223.331 20.0743C222.906 19.4919 222.677 18.7919 222.677 18.0735C222.677 17.3552 222.906 16.6551 223.331 16.0727C223.757 15.4903 224.357 15.0552 225.046 14.8291C225.736 14.6031 226.48 14.5976 227.173 14.8134C227.866 15.0292 228.473 15.4554 228.907 16.0314L232.419 12.5587C231.287 11.2989 229.794 10.4093 228.138 10.0078C226.483 9.60631 224.743 9.71202 223.149 10.3109C221.556 10.9097 220.184 11.9733 219.217 13.3607C218.249 14.7481 217.73 16.3936 217.73 18.079C217.73 19.7644 218.249 21.4099 219.217 22.7973C220.184 24.1847 221.556 25.2483 223.149 25.8471C224.743 26.446 226.483 26.5517 228.138 26.1502C229.794 25.7487 231.287 24.8591 232.419 23.5993L228.907 20.1156Z" fill="#3A3D3B"/>
<path d="M67.5212 54.471V58.6972H55.592V42.0654H67.5212V46.2916H60.441V48.2464H67.5212V52.2869H60.441V54.471H67.5212Z" fill="#F9F6F2"/>
<path d="M114.233 54.471V58.6972H102.314V42.0654H114.244V46.2916H107.285V48.2464H114.244V52.2869H107.285V54.471H114.233Z" fill="#F9F6F2"/>
<path d="M78.9531 42.0654H84.6415V54.3509H90.8933V58.7191H78.9531V42.0654Z" fill="#F9F6F2"/>
<path d="M152.505 46.4121H148.341V42.0439H161.595V46.4121H157.652V58.6976H152.483L152.505 46.4121Z" fill="#F9F6F2"/>
<path d="M177.225 54.5147H176.176V58.6972H171.603V42.0654H177.755C182.019 42.0654 184.736 44.4898 184.736 48.3338C184.795 49.3872 184.555 50.436 184.044 51.3621C183.533 52.2881 182.77 53.0547 181.842 53.5755L185.056 58.7082H179.81L177.225 54.5147ZM177.843 45.8657H176.176V50.2339H177.843C178.148 50.277 178.458 50.251 178.75 50.1578C179.043 50.0647 179.31 49.9068 179.531 49.6962C179.753 49.4856 179.923 49.2279 180.029 48.9426C180.134 48.6573 180.173 48.352 180.141 48.0498C180.141 46.5537 179.401 45.8657 177.843 45.8657Z" fill="#F9F6F2"/>
<path d="M198.852 42.0654H204.529V58.6972H198.852V42.0654Z" fill="#F9F6F2"/>
<path d="M228.862 52.484C228.428 53.0587 227.821 53.4835 227.128 53.6981C226.435 53.9128 225.692 53.9063 225.003 53.6798C224.314 53.4532 223.715 53.018 223.29 52.4359C222.865 51.8537 222.637 51.1542 222.637 50.4364C222.637 49.7187 222.865 49.0191 223.29 48.437C223.715 47.8548 224.314 47.4196 225.003 47.1931C225.692 46.9665 226.435 46.9601 227.128 47.1747C227.821 47.3893 228.428 47.8141 228.862 48.3888L232.375 44.9161C231.243 43.6563 229.75 42.7667 228.094 42.3652C226.438 41.9637 224.698 42.0694 223.105 42.6683C221.512 43.2671 220.14 44.3307 219.172 45.7181C218.204 47.1055 217.686 48.7511 217.686 50.4364C217.686 52.1218 218.204 53.7673 219.172 55.1547C220.14 56.5421 221.512 57.6057 223.105 58.2046C224.698 58.8034 226.438 58.9091 228.094 58.5076C229.75 58.1062 231.243 57.2165 232.375 55.9567L228.862 52.484Z" fill="#F9F6F2"/>
<path d="M135.451 52.484C135.016 53.0587 134.409 53.4835 133.716 53.6981C133.023 53.9128 132.28 53.9063 131.591 53.6798C130.902 53.4532 130.303 53.018 129.878 52.4359C129.454 51.8537 129.225 51.1542 129.225 50.4364C129.225 49.7187 129.454 49.0191 129.878 48.437C130.303 47.8548 130.902 47.4196 131.591 47.1931C132.28 46.9665 133.023 46.9601 133.716 47.1747C134.409 47.3893 135.016 47.8141 135.451 48.3888L138.974 44.9161C137.842 43.6563 136.349 42.7667 134.693 42.3652C133.038 41.9637 131.298 42.0694 129.704 42.6683C128.111 43.2671 126.739 44.3307 125.771 45.7181C124.804 47.1055 124.285 48.7511 124.285 50.4364C124.285 52.1218 124.804 53.7673 125.771 55.1547C126.739 56.5421 128.111 57.6057 129.704 58.2046C131.298 58.8034 133.038 58.9091 134.693 58.5076C136.349 58.1062 137.842 57.2165 138.974 55.9567L135.451 52.484Z" fill="#F9F6F2"/>
</g>
</g>
<defs>
<filter id="filter0_d_131_1849" x="-90" y="-152" width="1500" height="386" filterUnits="userSpaceOnUse" color-interpolation-filters="sRGB">
<feFlood flood-opacity="0" result="BackgroundImageFix"/>
<feColorMatrix in="SourceAlpha" type="matrix" values="0 0 0 0 0 0 0 0 0 0 0 0 0 0 0 0 0 0 127 0" result="hardAlpha"/>
<feOffset dy="-4"/>
<feGaussianBlur stdDeviation="15"/>
<feComposite in2="hardAlpha" operator="out"/>
<feColorMatrix type="matrix" values="0 0 0 0 0.917647 0 0 0 0 0.917647 0 0 0 0 0.956863 0 0 0 0.1 0"/>
<feBlend mode="normal" in2="BackgroundImageFix" result="effect1_dropShadow_131_1849"/>
<feBlend mode="normal" in="SourceGraphic" in2="effect1_dropShadow_131_1849" result="shape"/>
</filter>
<clipPath id="clip0_131_1849">
<rect width="1440" height="10275" fill="white" transform="translate(-60 -10067)"/>
</clipPath>
</defs>
</svg>
