<svg width="208" height="30" viewBox="0 0 208 30" fill="none" xmlns="http://www.w3.org/2000/svg">
<g clip-path="url(#clip0_441_28568)">
<path d="M73.8154 11.3262H77.1556V21.4788H73.8154V11.3262Z" fill="#F9F6F2"/>
<path d="M7.52342 18.9059V21.492H0.5V11.3329H7.52342V13.9191H3.35468V15.1061H7.52342V17.573H3.35468V18.8992L7.52342 18.9059Z" fill="#F9F6F2"/>
<path d="M43.2621 18.9059V21.492H36.2322V11.3329H43.2621V13.9191H39.0933V15.1061H43.2621V17.573H39.0933V18.8992L43.2621 18.9059Z" fill="#F9F6F2"/>
<path d="M24.3213 11.3395H27.6615V18.8329H31.3512V21.4854H24.3213V11.3395Z" fill="#F9F6F2"/>
<path d="M62.112 13.9854H59.6587V11.3329H67.4848V13.9854H65.1609V21.4854H62.112V13.9854Z" fill="#F9F6F2"/>
<path d="M18.1782 17.6525C17.9226 18.0028 17.5659 18.2617 17.1586 18.3926C16.7513 18.5235 16.3141 18.5197 15.909 18.3818C15.5039 18.2438 15.1515 17.9787 14.9018 17.624C14.652 17.2693 14.5176 16.8432 14.5176 16.4058C14.5176 15.9685 14.652 15.5423 14.9018 15.1877C15.1515 14.833 15.5039 14.5679 15.909 14.4299C16.3141 14.292 16.7513 14.2882 17.1586 14.4191C17.5659 14.55 17.9226 14.8089 18.1782 15.1592L20.2432 13.0371C19.5762 12.2678 18.6966 11.7245 17.7212 11.4792C16.7458 11.2339 15.7206 11.2982 14.7817 11.6637C13.8428 12.0291 13.0346 12.6784 12.4643 13.5254C11.894 14.3723 11.5886 15.3769 11.5886 16.4058C11.5886 17.4348 11.894 18.4394 12.4643 19.2863C13.0346 20.1333 13.8428 20.7826 14.7817 21.148C15.7206 21.5135 16.7458 21.5778 17.7212 21.3325C18.6966 21.0872 19.5762 20.5439 20.2432 19.7746L18.1782 17.6525Z" fill="#F9F6F2"/>
<path d="M53.9104 17.6525C53.7229 17.9134 53.4782 18.1255 53.1959 18.2718C52.9137 18.4181 52.6019 18.4945 52.2857 18.4947C51.9357 18.4992 51.5905 18.4113 51.2832 18.2395C50.976 18.0677 50.7172 17.8178 50.5315 17.5138C50.3459 17.2099 50.2398 16.8621 50.2234 16.5039C50.207 16.1458 50.2808 15.7893 50.4379 15.4689C50.5949 15.1484 50.8298 14.8748 51.1199 14.6743C51.4101 14.4738 51.7458 14.3532 52.0946 14.324C52.4435 14.2949 52.7938 14.3583 53.1118 14.508C53.4298 14.6578 53.7048 14.8889 53.9104 15.1791L55.9818 13.057C55.313 12.29 54.4323 11.7493 53.4567 11.5067C52.481 11.2641 51.4563 11.3311 50.5187 11.6987C49.581 12.0663 48.7745 12.7172 48.2062 13.5652C47.638 14.4131 47.3347 15.4179 47.3367 16.4465C47.3387 17.475 47.6458 18.4787 48.2173 19.3243C48.7888 20.1699 49.5978 20.8175 50.5369 21.1814C51.476 21.5452 52.5008 21.6081 53.4756 21.3616C54.4503 21.1151 55.3289 20.5708 55.9948 19.8011L53.9104 17.6525Z" fill="#F9F6F2"/>
<path d="M89.6554 17.6459C89.3995 17.9982 89.0418 18.259 88.6331 18.3912C88.2243 18.5233 87.7852 18.5202 87.3783 18.3821C86.9714 18.2441 86.6173 17.9782 86.3663 17.6222C86.1153 17.2663 85.9802 16.8383 85.9802 16.3992C85.9802 15.9601 86.1153 15.5321 86.3663 15.1761C86.6173 14.8202 86.9714 14.5543 87.3783 14.4162C87.7852 14.2782 88.2243 14.275 88.6331 14.4072C89.0418 14.5394 89.3995 14.8002 89.6554 15.1525L91.7268 13.0305C91.0602 12.2634 90.1817 11.7219 89.2078 11.4779C88.2339 11.2339 87.2107 11.2989 86.2737 11.6643C85.3367 12.0296 84.5302 12.6781 83.9611 13.5237C83.3921 14.3693 83.0874 15.3721 83.0874 16.3992C83.0874 17.4263 83.3921 18.4291 83.9611 19.2747C84.5302 20.1203 85.3367 20.7688 86.2737 21.1341C87.2107 21.4995 88.2339 21.5644 89.2078 21.3205C90.1817 21.0765 91.0602 20.535 91.7268 19.7679L89.6554 17.6459Z" fill="#F9F6F2"/>
<path d="M122.021 18.9059V21.4854H114.985V11.3329H122.021V13.9125H117.853V15.0995H122.021V17.5663H117.853V18.8926L122.021 18.9059Z" fill="#F9F6F2"/>
<path d="M146.205 18.9059V21.4854H139.175V11.3329H146.205V13.9125H142.088V15.0995H146.186V17.5663H142.088V18.8926L146.205 18.9059Z" fill="#F9F6F2"/>
<path d="M127.077 11.3329H130.436V18.8329H134.12V21.4854H127.077V11.3329Z" fill="#F9F6F2"/>
<path d="M165.424 13.9854H162.971V11.3329H170.797V13.9854H168.473V21.4854H165.424V13.9854Z" fill="#F9F6F2"/>
<path d="M178.338 18.9324H177.691V21.4854H174.998V11.3329H178.623C181.135 11.3329 182.734 12.8117 182.734 15.1592C182.767 15.8004 182.626 16.4385 182.325 17.0019C182.024 17.5653 181.576 18.0317 181.031 18.3488L182.928 21.4854H179.84L178.338 18.9324ZM178.701 13.6273H177.691V16.3263H178.668C178.847 16.3534 179.03 16.3383 179.203 16.2822C179.375 16.2262 179.533 16.1306 179.664 16.0028C179.795 15.8749 179.896 15.7182 179.959 15.5444C180.022 15.3707 180.045 15.1845 180.028 15C180.047 14.065 179.633 13.6538 178.688 13.6538L178.701 13.6273Z" fill="#F9F6F2"/>
<path d="M189.407 11.3329H192.748V21.4854H189.407V11.3329Z" fill="#F9F6F2"/>
<path d="M205.429 17.6525C205.173 18.0028 204.816 18.2617 204.409 18.3926C204.002 18.5235 203.564 18.5197 203.159 18.3818C202.754 18.2438 202.402 17.9787 202.152 17.624C201.902 17.2693 201.768 16.8432 201.768 16.4058C201.768 15.9685 201.902 15.5423 202.152 15.1877C202.402 14.833 202.754 14.5679 203.159 14.4299C203.564 14.292 204.002 14.2882 204.409 14.4191C204.816 14.55 205.173 14.8089 205.429 15.1592L207.5 13.0371C206.833 12.2678 205.953 11.7245 204.978 11.4792C204.003 11.2339 202.977 11.2982 202.039 11.6637C201.1 12.0291 200.291 12.6784 199.721 13.5254C199.151 14.3723 198.845 15.3769 198.845 16.4058C198.845 17.4348 199.151 18.4394 199.721 19.2863C200.291 20.1333 201.1 20.7826 202.039 21.148C202.977 21.5135 204.003 21.5778 204.978 21.3325C205.953 21.0872 206.833 20.5439 207.5 19.7746L205.429 17.6525Z" fill="#F9F6F2"/>
<path d="M157.042 17.6525C156.786 18.0028 156.429 18.2617 156.022 18.3926C155.615 18.5235 155.177 18.5197 154.772 18.3818C154.367 18.2438 154.015 17.9787 153.765 17.624C153.515 17.2693 153.381 16.8432 153.381 16.4058C153.381 15.9685 153.515 15.5423 153.765 15.1877C154.015 14.833 154.367 14.5679 154.772 14.4299C155.177 14.292 155.615 14.2882 156.022 14.4191C156.429 14.55 156.786 14.8089 157.042 15.1592L159.106 13.0371C158.439 12.2678 157.56 11.7245 156.585 11.4792C155.609 11.2339 154.584 11.2982 153.645 11.6637C152.706 12.0291 151.898 12.6784 151.328 13.5254C150.757 14.3723 150.452 15.3769 150.452 16.4058C150.452 17.4348 150.757 18.4394 151.328 19.2863C151.898 20.1333 152.706 20.7826 153.645 21.148C154.584 21.5135 155.609 21.5778 156.585 21.3325C157.56 21.0872 158.439 20.5439 159.106 19.7746L157.042 17.6525Z" fill="#F9F6F2"/>
<path d="M111.211 14.1446H103.981L105.644 0L95.928 17.553H102.032L100.239 30L111.211 14.1446Z" fill="#FBB040"/>
</g>
<defs>
<clipPath id="clip0_441_28568">
<rect width="207" height="30" fill="white" transform="translate(0.5)"/>
</clipPath>
</defs>
</svg>
