<svg width="113" height="20" viewBox="0 0 113 20" fill="none" xmlns="http://www.w3.org/2000/svg">
<g clip-path="url(#clip0_961_8557)">
<path d="M10.5 0L12.7451 6.90983H20.0106L14.1327 11.1803L16.3779 18.0902L10.5 13.8197L4.62215 18.0902L6.86729 11.1803L0.989435 6.90983H8.25486L10.5 0Z" fill="#FBB040"/>
</g>
<g clip-path="url(#clip1_961_8557)">
<path d="M33.5 0L35.7451 6.90983H43.0106L37.1327 11.1803L39.3779 18.0902L33.5 13.8197L27.6221 18.0902L29.8673 11.1803L23.9894 6.90983H31.2549L33.5 0Z" fill="#FBB040"/>
</g>
<g clip-path="url(#clip2_961_8557)">
<path d="M56.5 0L58.7451 6.90983H66.0106L60.1327 11.1803L62.3779 18.0902L56.5 13.8197L50.6221 18.0902L52.8673 11.1803L46.9894 6.90983H54.2549L56.5 0Z" fill="#FBB040"/>
</g>
<g clip-path="url(#clip3_961_8557)">
<path d="M79.5 0L81.7451 6.90983H89.0106L83.1327 11.1803L85.3779 18.0902L79.5 13.8197L73.6221 18.0902L75.8673 11.1803L69.9894 6.90983H77.2549L79.5 0Z" fill="#FBB040"/>
</g>
<g clip-path="url(#clip4_961_8557)">
<path d="M102.5 0L104.745 6.90983H112.011L106.133 11.1803L108.378 18.0902L102.5 13.8197L96.6221 18.0902L98.8673 11.1803L92.9894 6.90983H100.255L102.5 0Z" fill="#FBB040"/>
</g>
<defs>
<clipPath id="clip0_961_8557">
<path d="M0.5 2C0.5 0.895431 1.39543 0 2.5 0H18.5C19.6046 0 20.5 0.895431 20.5 2V18C20.5 19.1046 19.6046 20 18.5 20H2.5C1.39543 20 0.5 19.1046 0.5 18V2Z" fill="white"/>
</clipPath>
<clipPath id="clip1_961_8557">
<path d="M23.5 2C23.5 0.895431 24.3954 0 25.5 0H41.5C42.6046 0 43.5 0.895431 43.5 2V18C43.5 19.1046 42.6046 20 41.5 20H25.5C24.3954 20 23.5 19.1046 23.5 18V2Z" fill="white"/>
</clipPath>
<clipPath id="clip2_961_8557">
<path d="M46.5 2C46.5 0.895431 47.3954 0 48.5 0H64.5C65.6046 0 66.5 0.895431 66.5 2V18C66.5 19.1046 65.6046 20 64.5 20H48.5C47.3954 20 46.5 19.1046 46.5 18V2Z" fill="white"/>
</clipPath>
<clipPath id="clip3_961_8557">
<path d="M69.5 2C69.5 0.895431 70.3954 0 71.5 0H87.5C88.6046 0 89.5 0.895431 89.5 2V18C89.5 19.1046 88.6046 20 87.5 20H71.5C70.3954 20 69.5 19.1046 69.5 18V2Z" fill="white"/>
</clipPath>
<clipPath id="clip4_961_8557">
<path d="M92.5 2C92.5 0.895431 93.3954 0 94.5 0H110.5C111.605 0 112.5 0.895431 112.5 2V18C112.5 19.1046 111.605 20 110.5 20H94.5C93.3954 20 92.5 19.1046 92.5 18V2Z" fill="white"/>
</clipPath>
</defs>
</svg>
